<?xml version="1.0" encoding="UTF-8"?><svg id="Lag_1" xmlns="http://www.w3.org/2000/svg"  width="78" height="51" viewBox="0 0 78 47.52"><defs><style>.cls-1{fill:none;}.cls-2{fill:#f8b27e;}.cls-3{fill:#fefefd;}.cls-4{fill:#dd7e37;}.cls-5{fill:#76471d;}.cls-6{letter-spacing:-.01em;}.cls-7{font-family:Playball-Regular, Playball;font-size:11px;isolation:isolate;}</style></defs><rect class="cls-1" y="36.37" width="78" height="10.8"/><text class="cls-7" transform="translate(4.45 43.57)"><tspan x="0" y="0">Lundsbjer</tspan><tspan class="cls-6" x="40.25" y="0">gg</tspan><tspan x="49.58" y="0">aard</tspan></text><g><path class="cls-3" d="M61.61,24.47c0,3.85,0,7.71,0,11.56,0,.29-.06,.34-.34,.34-15.1,0-30.19,0-45.29,0,0-11.99,0-23.99,0-35.98,0-.31,.07-.38,.38-.38,7.48,.01,14.96,0,22.43,0-.11,.13-.26,.07-.39,.08-1.13,.04-2.27,.08-3.4,.15-1.27,.08-2.54,.21-3.81,.02-.52-.08-1.05-.14-1.57-.04-.32,.06-.64,.08-.95,.01-.8-.17-1.59-.12-2.39,0-.7,.11-1.4,.2-2.11,.1-.6-.09-1.19-.11-1.77,.03-.73,.17-1.49,.31-1.98,.99-.35,.5-.82,.88-1.3,1.26-.35,.28-.64,.67-.67,1.2-.02,.35-.13,.7-.2,1.06-.03,.13-.06,.27,.04,.4-.05,.25-.07,.5,.02,.74-.01,.44-.01,.88,.06,1.32,.15,.94,.23,1.89,.38,2.83,.1,.64-.02,1.29,.13,1.93-.1,1.17,.08,2.34-.04,3.51l-.49,1.49c-.14,.31-.29,.62-.4,.94-.14,.38-.42,.71-.43,1.14l-.03,.02-.06,.05c-.13,.08-.16,.22-.21,.34-.4,.42-.51,.92-.47,1.48l-.2,.26c-.08,.05-.17,.09-.24,.15-.07,.06-.24,.09-.1,.23,.08,.08,.14,.23,.3,.11,.06-.05,.14-.08,.21-.11,.09,.17,.37,.31,.27,.48-.31,.52,0,1.02-.07,1.57,.28-.26,.34-.63,.66-.77,.48,.43,.66,1.01,.8,1.61,.11,.47,.2,.94,.29,1.41l.06,.47c.02,.38-.05,.78,.26,1.09-.11,.46-.21,.92-.16,1.39,.14,1.37,0,2.74-.1,4.11-.35,.17-.34,.52-.4,.83-.01,.22,.03,.53,.21,.56,.25,.05,.54,.19,.81,.02h.04c0,.42,.2,.56,.61,.51,.19-.02,.38,.02,.58,.03h1.3l.27,.08c.11,.08,.22,.03,.29-.05,.08-.1-.02-.18-.08-.24-.33-.36-.65-.74-1.04-1.03-.55-.86-.76-1.82-.83-2.82-.05-.69-.08-1.38-.12-2.06-.02-.58,.07-1.16-.05-1.73,.3-.46,.35-1,.52-1.5,.1-.28,.16-.51,.03-.77,.06-.12,.22-.18,.2-.35,.19-.5,.24-1.05,.47-1.54,.06-.14,.03-.34,.28-.35,.22,0,.22,.16,.3,.28,.12,.18,.21,.4,.46,.55-.08-.57,.19-.73,.66-.69,.09,0,.19,0,.29-.03,.2-.04,.29,.04,.35,.23,.51,1.89,1.03,3.78,1.54,5.68,.08,1.03,.27,2.04,.44,3.05l-.05,1.06c-.18,.17-.3,.38-.39,.61-.09,.38,.11,.55,.45,.57,.15,.01,.3-.05,.45-.08,.1,.11,.22,.19,.25,.36,.07,.43,.34,.55,.74,.48,.14-.03,.28,.11,.42,0,.45,0,.89,.04,1.34-.04,.07,0,.13-.01,.2-.02,.42-.02,.39-.21,.2-.49-.16-.23-.31-.46-.54-.62-.62-.43-.84-1.13-1.09-1.76-.2-.52-.3-1.11-.42-1.68-.22-.99-.62-1.95-.51-3.01,.1-1,.15-2.01,.22-3.02,.01-.16-.06-.38,.09-.46,.16-.08,.26,.16,.41,.22,.02,0,.05,0,.08,0,.15-.34,.38-.64,.57-.96,.14-.23,.33-.35,.58-.34,1.16,.07,2.04-.64,2.97-1.14,.48-.26,.93-.45,1.48-.42,.61,.03,1.22,.07,1.82,.04,1.29-.06,2.55-.33,3.82-.52,.03,.08,.06,.15,.08,.23,.31,1.31,.61,2.62,1.01,3.91,.16,.49,.28,.99,.3,1.51,.04,.86,.23,1.68,.5,2.49-.07,.15-.06,.3-.04,.45,.11,.77,.12,1.54,0,2.32-.15,.95-.22,1.93-.79,2.76-.11,.16-.14,.36-.12,.56,.11,.89,.52,1.16,1.32,.96,.27-.06,.54-.12,.8-.18,.12-.03,.25-.09,.34,.04,.17,.27,.43,.28,.69,.25,.16-.02,.39,.12,.47-.1,.09-.23-.1-.38-.24-.53-.15-.15-.33-.25-.39-.49-.22-.87-.5-1.72-.61-2.61,0-.1,.02-.19,0-.29-.16-.9-.17-1.79,.01-2.69,.06-.28,.31-.54,.13-.86,.45-.61,.61-1.27,.41-2.02-.11-.39-.15-.81-.22-1.21-.2-.8-.18-1.62-.22-2.43-.02-.45,0-.91,.13-1.35,.95,.45,1.43,1.26,1.76,2.2,.05,.18,.07,.41,.25,.49,.48,.2,.95,.43,1.49,.43l.59,.02c.07,.12,.15,.24,.27,.31,.18,1.53,.47,3.03,.72,4.55,.19,1.16,.12,2.35,.19,3.52,.02,.33-.02,.62-.19,.91-.17,.28-.13,.58-.11,.9,.04,.84,.94,.75,1.25,1.27,.01,.02,.08,0,.12,0,.55,0,1.11,0,1.66-.07,.11-.01,.23,0,.25-.16,.06-.43,.17-.86-.2-1.24-.3-.32-.56-.7-.62-1.15-.08-.68-.26-1.33-.41-1.99-.04-.17-.17-.36,.01-.56,.52,.99,1.04,1.97,1.55,2.94,.04,.45,.09,.9,.13,1.34-.08,.2,.19,.37,.13,.49-.15,.29,.08,.27,.21,.35,.11,.07,.35,.06,.31,.2-.13,.38,.15,.28,.3,.27,.68-.02,1.35-.05,2.02-.08,1.09-.06,1.09-.06,1.2-1.15,0-.01,0-.03,0-.04,.04-.46,0-.91-.18-1.34-.18-.45-.33-.9-.28-1.39,.1-.19,0-.44,.21-.6,.3-.23,.41-.58,.49-.93,.2-.79,.43-1.56,1.01-2.18,.09-.09,.19-.21,.17-.36,.07-.27,.22-.53,.19-.82h-.01c.08,.02,.07-.05,.08-.09,.28-.55,.11-1.13,.14-1.7,.01-.22,0-.42,.26-.5,.32,.33,.81,.47,1.06,.88-.03,.42,.16,.58,.59,.58,.98,0,.98,0,1.02-1,.5,0,1.03,.05,1.23-.58,.11-.12,.04-.32,.18-.43Z"/><path class="cls-3" d="M41.21,0c6.69,0,13.37,0,20.06,0,.29,0,.34,.06,.34,.34,0,7.93,0,15.86,0,23.79-.35,0-.64-.21-.98-.24-.4-.22-.85-.27-1.27-.41-.59-.44-1.31-.45-1.99-.6l-1.34-.49c-.27-.26-.63-.36-.93-.57l-.15-.42c-.1-.72-.18-1.44-.32-2.14-.1-.46-.09-.94-.19-1.39-.35-1.61-.83-3.18-1.36-4.73-.33-.98-.81-1.91-.95-2.95-.15-1.09-.29-2.19-.52-3.27-.18-.88-.61-1.67-1.1-2.39-.6-.9-1.58-1.49-2.24-2.36-.03-.04-.09-.07-.14-.09-.64-.25-1.22-.65-1.93-.72-.15-.01-.33,.02-.45-.05-.69-.41-1.49-.48-2.24-.71-.76-.23-1.54-.4-2.3-.59Z"/><path class="cls-2" d="M41.21,0c.77,.2,1.54,.37,2.3,.59,.75,.22,1.54,.3,2.24,.71,.12,.07,.3,.04,.45,.05,.71,.07,1.29,.47,1.93,.72,.05,.02,.1,.05,.14,.09,.66,.88,1.63,1.47,2.24,2.36,.48,.72,.92,1.51,1.1,2.39-.2-.01-.33,.03-.3,.27,.05,.44-.41,1.08-.83,1.12-.26,.02-.38-.16-.34-.41,.02-.13,.09-.26,.15-.38,.12-.2,.11-.4-.05-.53-.21-.17-.27-.41-.33-.63-.08-.28-.19-.41-.48-.38-.16,.02-.22-.07-.22-.22,0-.11-.05-.2-.17-.18-.16,.03-.33,.06-.46,.15-.08,.06-.04,.21,.05,.3,.37,.39,.45,.86,.42,1.38-.03,.63,.14,1.25-.07,1.89-.11,.34-.37,.66-.33,1,.05,.45-.18,.72-.45,.99-.14,.14-.23,.62-.47,.06,0-.02-.08-.03-.11-.03-.26,.02-.32-.06-.27-.34,.05-.22-.11-.43-.35-.54-.13,.31-.51,.43-.6,.75-.26,.9-.01,1.76,.26,2.61,.05,.16,.1,.34,0,.48-.12,.15-.32,.04-.46,0-.17-.04-.3-.23-.22-.39,.16-.34,.03-.7,.1-1.03,.05-.23,.03-.46-.14-.56-.2-.13-.21,.18-.35,.25-.3,.14-.42,.38-.21,.67,.11,.15,.09,.25-.02,.34-.14,.12-.39,0-.4-.05-.13-.41-.58-.69-.57-1.13,.03-.74-.13-1.45-.2-2.17-.02-.25-.02-.52-.4-.49-.12,.01-.14-.09-.17-.19-.08-.28-.02-.54,.07-.8,.13-.36-.19-.46-.37-.64-.08-.09-.17-.09-.25,0-.27,.31-.58,.14-.75-.05-.24-.27-.81-.41-.51-.98,.07-.14,.13-.37-.13-.38-.3,0-.34-.15-.33-.39,0-.13-.02-.28-.12-.32-.25,0-.06,.68-.52,.25,0,0-.04,0-.04,0-.1,.34-.56,.32-.67,.7-.12,.41-.44,.82-.83,.92-.32,.07-.59,.24-.9,.32-.18,.05-.26,.17-.36,.35-.18,.34-.5,.65-.87,.67-.27,.01-.4,.12-.54,.28-.33,.38-.54,.37-.81-.05-.1-.17-.18-.44-.46-.14-.1,.1-.27,.04-.37-.08-.17-.2-.35-.39-.51-.6-.11-.14-.03-.22,.11-.2,.46,.07,.49-.32,.62-.58,.09-.19,0-.4-.25-.33-.34,.09-.75,.1-.9,.53-.02,.06-.05,.11-.11,.1-.17-.05-.36-.09-.5-.19-.13-.09,.02-.22,.05-.33,.04-.12,.09-.23,.12-.35,.02-.07-.03-.18-.09-.14-.3,.22-.7,0-.98,.26-.18,.17-.37,.15-.58,.08-.1-.03-.19-.15-.31-.08-.47,.3-.37-.14-.44-.34-.1-.26,.22-.3,.31-.48-.85,.01-1.6,.52-1.83,1.25-.13,.4-.32,.76-.54,1.11-.06,.1-.15,.26-.28,.19-.14-.07-.04-.21,0-.33,.03-.08,.14-.16,0-.28-.16,.24-.32,.21-.56,.07-.28-.16-.62-.32-.91-.35-.37-.04-.39-.21-.43-.46-.06-.4-.45-.7-.34-1.15,0-.03-.06-.1-.1-.11-.36-.06-.38-.32-.38-.59,0-.15-.03-.28-.18-.34-.15-.07-.19-.21-.21-.34-.06-.41-.23-.8-.21-1.22,.01-.24-.1-.36-.34-.44-.49-.17-.96,.02-1.44,.03-.14,0-.2,.09-.17,.26,.05,.3-.43,.92-.71,.87-.39-.07-.53,.15-.71,.41-.28,.39-.51,.86-1.03,.96-.2,.04-.6,.36-.59-.23,0-.06-.05-.12-.1-.1-.41,.16-.49-.33-.71-.38-.58-.13-.11-.53-.26-.74-.02-.03,0-.08,0-.12,0-.16-.07-.27-.25-.27-.17,0-.3,.03-.33,.23-.02,.14-.07,.27-.08,.41-.03,.28-.16,.4-.44,.36-.1-.12-.06-.26-.04-.4,.07-.35,.18-.7,.2-1.06,.02-.52,.31-.91,.67-1.2,.48-.38,.94-.76,1.3-1.26,.48-.68,1.24-.82,1.98-.99,.58-.14,1.18-.11,1.77-.03,.7,.1,1.41,0,2.11-.1,.8-.12,1.59-.18,2.39,0,.31,.07,.63,.05,.95-.01,.52-.1,1.04-.04,1.57,.04,1.27,.19,2.54,.07,3.81-.02,1.13-.07,2.27-.11,3.4-.15,.13,0,.28,.05,.39-.08h2.41Zm-11.39,1.84c-.22,.03-.54-.11-.76,.07-.27,.21-.59,.34-.9,.4-.58,.11-.83,.56-1.1,.98-.15,.23-.17,.56,.07,.72,.22,.14,.35,.59,.78,.27,.17-.12,.49-.05,.61,.12,.16,.23,.38,.24,.57,.25,.44,.02,.84,.14,1.25,.26,.2,.06,.4,.1,.61,.08,.18-.01,.32-.08,.2-.28-.14-.24-.01-.35,.18-.39,.84-.2,1.08-.85,1.25-1.58,.14-.59-.05-.82-.65-.71-.25,.05-.52,.13-.73,.03-.43-.2-.87-.22-1.38-.21Zm15.37,9.02c-.02,.3,.12,.41,.4,.37,.15-.02,.29-.01,.28-.21-.04-.64,.15-1.3-.22-1.91-.09-.16-.15-.35-.05-.55,.04-.08,.05-.21-.09-.3-.05,.18-.12,.33-.12,.49,0,.26-.06,.41-.36,.43-.21,.01-.13,.17-.07,.31,.13,.35,.21,.72-.08,1.03-.23,.24-.31,.64-.16,.92,.05,.09,.1,.13,.19,.12,.11-.01,.13-.09,.13-.18,.01-.17-.04-.36,.16-.52ZM26.81,1.85c.27,0,.53-.12,.62-.41,.04-.12-.18-.19-.28-.15-.24,.09-.6,.02-.67,.38-.04,.21,.16,.17,.32,.19Zm-6.27,.17c.73,.15,.95,.05,1.23-.57l-1.23,.57Z"/><path class="cls-5" d="M60.63,23.89c.34,.03,.63,.25,.98,.24v.33c-.14,.11-.07,.31-.18,.43-.48,0-.98-.09-1.31,.4-.31-.16-.59-.12-.76,.2-.17,.33-.49,.33-.78,.4-.26-.41-.74-.55-1.06-.88l-.27-.47,.12-.29c.24,.18,.49,.15,.75,.06,.84-.11,1.61-.65,2.51-.41Z"/><path class="cls-4" d="M18.31,5.25c.28,.04,.41-.08,.44-.36,.01-.14,.06-.27,.08-.41,.03-.2,.15-.24,.33-.23,.18,0,.24,.12,.25,.27,0,.04-.01,.09,0,.12,.15,.22-.32,.61,.26,.74,.22,.05,.3,.54,.71,.38,.05-.02,.1,.04,.1,.1,0,.59,.39,.26,.59,.23,.53-.1,.76-.57,1.03-.96,.18-.26,.32-.48,.71-.41,.27,.05,.76-.57,.71-.87-.03-.17,.03-.26,.17-.26,.48,0,.95-.2,1.44-.03,.24,.08,.35,.2,.34,.44-.02,.42,.15,.81,.21,1.22,.02,.13,.06,.27,.21,.34,.15,.07,.18,.19,.18,.34,0,.27,.02,.54,.38,.59,.04,0,.11,.08,.1,.11-.11,.45,.28,.75,.34,1.15,.03,.25,.05,.42,.43,.46,.29,.03,.63,.19,.91,.35,.24,.14,.41,.17,.56-.07,.14,.12,.03,.2,0,.28-.04,.12-.13,.26,0,.33,.13,.07,.22-.1,.28-.19,.23-.35,.42-.71,.54-1.11,.23-.73,.98-1.24,1.83-1.25-.09,.18-.41,.22-.31,.48,.07,.2-.03,.64,.44,.34,.11-.07,.21,.04,.31,.08,.21,.07,.4,.09,.58-.08,.28-.26,.68-.03,.98-.26,.06-.04,.11,.07,.09,.14-.03,.12-.08,.23-.12,.35-.04,.11-.18,.24-.05,.33,.14,.1,.33,.13,.5,.19,.06,.02,.09-.04,.11-.1,.15-.43,.56-.43,.9-.53,.26-.07,.34,.14,.25,.33-.13,.26-.16,.65-.62,.58-.14-.02-.23,.05-.11,.2,.16,.2,.34,.4,.51,.6,.1,.12,.27,.18,.37,.08,.28-.3,.36-.02,.46,.14,.27,.42,.48,.44,.81,.05,.14-.16,.26-.27,.54-.28,.37-.02,.7-.33,.87-.67,.09-.18,.18-.3,.36-.35,.31-.08,.57-.25,.9-.32,.39-.09,.71-.51,.83-.92,.11-.39,.57-.36,.67-.7,0,0,.03-.01,.04,0,.46,.43,.26-.25,.52-.25,.11,.04,.13,.18,.12,.32,0,.24,.03,.38,.33,.39,.26,0,.2,.24,.13,.38-.3,.57,.27,.72,.51,.98,.17,.18,.48,.36,.75,.05,.08-.09,.16-.09,.25,0,.18,.18,.5,.28,.37,.64-.1,.26-.15,.52-.07,.8,.03,.1,.04,.2,.17,.19,.38-.03,.38,.24,.4,.49,.07,.72,.23,1.44,.2,2.17-.02,.44,.43,.72,.57,1.13,.02,.05,.26,.17,.4,.05,.11-.1,.13-.19,.02-.34-.21-.29-.08-.52,.21-.67,.14-.07,.16-.38,.35-.25,.16,.11,.18,.33,.14,.56-.07,.34,.05,.69-.1,1.03-.07,.16,.05,.35,.22,.39,.14,.03,.34,.15,.46,0,.1-.13,.05-.31,0-.48-.27-.85-.52-1.71-.26-2.61,.09-.32,.47-.44,.6-.75,.23,.1,.39,.31,.35,.54-.06,.28,0,.36,.27,.34,.04,0,.1,0,.11,.03,.23,.55,.33,.07,.47-.06,.27-.27,.5-.53,.45-.99-.03-.34,.22-.66,.33-1,.2-.64,.03-1.26,.07-1.89,.03-.52-.04-.99-.42-1.38-.09-.09-.13-.24-.05-.3,.13-.09,.3-.12,.46-.15,.12-.02,.17,.07,.17,.18,0,.15,.06,.24,.22,.22,.29-.04,.41,.1,.48,.38,.06,.22,.12,.46,.33,.63,.16,.13,.17,.33,.05,.53-.07,.12-.13,.25-.15,.38-.04,.25,.08,.43,.34,.41,.41-.03,.87-.68,.83-1.12-.02-.24,.11-.29,.3-.27,.23,1.08,.36,2.18,.52,3.27,.14,1.03,.62,1.97,.95,2.95,.53,1.56,1.01,3.13,1.36,4.73,.1,.45,.09,.93,.19,1.39,.15,.71,.22,1.43,.32,2.14-.25-.07-.5-.14-.76-.22-.31-2.07-.48-4.18-1.45-6.09-.01,.34-.07,.73,.1,.97,.49,.7,.55,1.44,.41,2.23-.05,.27-.36,.56,.14,.72,.02,0,.02,.07,.02,.11,.03,.45,.13,.9,.32,1.31,.09,.2,.08,.37-.06,.49-.14,.12-.28,.06-.42-.09-.27-.3-.27-.68-.36-1.03-.04-.14,0-.31-.2-.35-.07-.02-.12-.08-.11-.16,.09-.89,.07-1.75-.25-2.61-.17-.46-.29-.94-.46-1.41-.22-.63-.53-1.26-.19-1.95,.02-.04,0-.12-.02-.15-.36-.47-.35-1.03-.36-1.57,0-.36-.12-.7-.19-1.05-.04-.18-.17-.23-.34-.22-.27,.02-.12,.2-.12,.31-.03,.59,.09,1.22-.5,1.65-.13,.09-.08,.25-.09,.39-.07,1.3,.62,2.4,1.01,3.57,.05,.16,.12,.27,.08,.45-.09,.45,.17,.85,.6,.97,.27,.07,.38,.22,.39,.5,.02,.66-.08,1.31-.02,1.98,.04,.45-.03,.9-.06,1.36-.3,.27-.74,.37-.92,.78-.17,.19-.39,.07-.58,.09-.07-.41-.35-.74-.45-1.14-.05-.23-.12-.44,.05-.66,.24-.31,.19-.51-.19-.59-.21-.04-.25-.16-.31-.32-.23-.56-.18-1.16-.33-1.73-.06-.24-.15-.51-.07-.77,.24-.79-.31-1.3-.66-1.98-.09,.6-.2,1.1-.1,1.59,.09,.44,.06,.88,.04,1.32-.15-.02-.25-.13-.34-.23-.19-.22-.46-.26-.68-.18-.23,.07-.5-.18-.69,.12-.03,.04-.21-.08-.28-.19-.05-.08-.02-.24-.2-.23-.11,.63,.02,1.14,.65,1.43-.45-.05-.88-.2-1.32-.31-.65-.18-1.31-.58-2-.1-.05,.03-.16,0-.24-.03-.26-.1-.48-.04-.69,.12-.33,0-.63-.13-.97-.13-.51,0-.59,.03-.55,.54,.01,.17-.08,.27-.21,.32-.19,.07-.18-.12-.23-.22-.07-.18-.05-.33,.07-.5,.19-.28,.23-.63,.3-.96,.03-.12,.03-.27-.11-.33-.17-.07-.26,.09-.32,.2-.28,.49-.68,.94-.57,1.58,.04,.25-.06,.42-.3,.53-.1,.05-.26,.08-.26,.24,0,.16,.14,.21,.27,.27,.33,.14,.51,.35,.37,.75-.06,.16-.02,.35,.05,.53,.14,.35,.16,.69,0,1.07-.08,.19-.19,.58-.14,.62,.32,.28,.08,.63,.19,.92,.12,.32,.12,.59-.26,.73-.39-1.29-.69-2.6-1.01-3.91-.02-.08-.05-.15-.08-.23-.02-.08-.04-.16-.05-.24-.25-1.09-.89-2.02-1.19-3.09-.01-.04-.02-.07-.07-.03-.2-.08-.29-.2-.31-.44-.01-.27-.05-.56-.21-.86-.11,.19-.08,.33-.04,.47,.05,.2,.09,.4,.13,.6,.03,.17-.07,.29-.21,.37-.09,.05-.2,.06-.26-.03-.18-.28-.57-.42-.53-.85,.02-.17-.12-.24-.28-.23-.16,.01-.14,.14-.15,.25-.01,.2,.01,.39,.12,.56,.14,.24,.19,.52,.27,.78,.05,.15-.01,.24-.11,.32-.12,.1-.16-.04-.24-.08-.14-.06-.28-.16-.42-.16-.72-.03-1.28-.42-1.86-.76-.2-.12-.5-.18-.59-.35-.23-.43-.53-.33-.84-.2-.47,.2-.89,.17-1.34-.07-.6-.33-1.28-.52-1.74-1.1-.13-.17-.49-.32-.61-.17-.25,.33-.35,.08-.49-.05-.12-.11-.25-.22-.35-.35-.18-.23-.35-.24-.52,0-.17,.23-.34,.24-.55,.04-.07-.06-.14-.23-.27-.12-.18,.14-.38,.29-.48,.48-.08,.17,.17,.24,.28,.36,.1,.11,.19,.24,.27,.36,.04,.06,.09,.16,.03,.23-.07,.07-.16,.02-.23-.01-.4-.18-.8-.36-1.2-.55-.13-.22-.37-.32-.55-.48-.24-.21-.45,.05-.68,.08-.06,0-.11,.07-.07,.12,.12,.17,.24,.34,.47,.36,.08,0,.16,.03,.24,.05-.4,.03-.69,.22-.89,.57-.28,.5-.62,.97-.6,1.58,0,.21-.08,.35-.33,.31,0-.22-.07-.47,.02-.66,.19-.41-.09-.45-.34-.5-.36-.07-.54,.08-.58,.4-.03,.24,.26,.26,.28,.51-.25-.04-.48,.07-.69-.11-.3-.27-.35-.05-.35,.2,0,.43-.06,.87,.21,1.42-.34-.24-.53-.21-.6,.05-.05,.2-.17,.42-.03,.63,.1,.16,.09,.29,0,.46-.12,.22-.17,.44-.03,.7,.09,.17,.29,0,.34,.15,.05,.15,.05,.31,.28,.18,.19-.1,.41-.21,.32-.46-.14-.41,.05-.76,.13-1.12,.11-.51,.12-.51,.64-.3,.02,0,.05,0,.11,0-.03-.17-.17-.38,.12-.46l.27-.07c-.03,.23,.02,.47-.07,.7-.05,.12,.01,.21,.1,.29,.05,.04,.1,.05,.15,0,.09-.08,.06-.17,.02-.27-.02-.05-.04-.12-.02-.16,.09-.19,.04-.5,.28-.56,.27-.07,.33,.22,.45,.41,.21,.35,.44,.7,.65,1.05-.11,.13-.05,.3-.11,.44-.26,0-.46-.15-.67-.28-.5-.32-.69-.24-.8,.35-.37,.33-.31,0-.33-.21,0-.09,.05-.23-.09-.24-.14,0-.17,.13-.13,.24,.12,.34-.03,.56-.29,.73-.15,.1-.25,.25-.22,.42,.06,.36-.08,.67-.23,.98-.22,.47-.52,.92-.2,1.46,.02,.17-.14,.23-.2,.35-.15-.17-.17-.4-.12-.59,.08-.32-.11-.42-.33-.5-.09-.03-.19-.05-.28-.05-.22,0-.28-.14-.31-.32-.03-.2,.08-.25,.26-.27,.25-.04,.5-.13,.77-.21-.03-.06-.04-.15-.08-.18-.45-.28-.8-.67-1.21-.99-.2-.16-.22,0-.27,.14-.11,.31-.28,.54-.67,.45,.04-.37,.05-.74,.12-1.1,.1-.56,.08-1.14,.26-1.68,.33,.03,.51,.14,.39,.52-.06,.2-.02,.43,.2,.6,.02-.05,.04-.08,.04-.12,.06-.8-.28-1.53-.44-2.3-.03-.12-.14-.2-.28-.21-.07-.82,.04-1.65-.08-2.47,.12-1.17-.06-2.34,.04-3.51,.34-.16,.39-.48,.43-.81,.03-.27,.05-.54,.21-.87,.21,.87,.43,1.66,.44,2.48,0,.56,.26,.91,.71,1.16,.39,.22,.4,.29,.07,.57-.1,.08-.18,.17-.27,.26-.06,.06-.14,.11-.12,.2,.03,.11,.13,.07,.21,.08,.15,.03,.3,.06,.45,.08,.09,.01,.25,.03,.26-.06,.05-.39,.53-.49,.56-.87,.23-.04,.6,0,.39-.39-.18-.33-.46-.61-.62-.97-.04-.08-.11-.2-.22-.14-.1,.05-.06,.17-.02,.26,.13,.36,.27,.72,.4,1.08-.08,.02-.21,.05-.23-.03-.15-.59-.61-1.02-.79-1.59-.24-.78-.46-1.56-.68-2.34,0-.04,0-.09,.03-.12,.22-.31,.44-.6-.05-.9-.11-.07-.16-.28-.2-.44-.15-.66-.51-1.22-.84-1.89v.4c-.1-.03-.09-.12-.11-.2-.08-.43-.17-.86-.27-1.35-.11,.14-.19,.26-.31,.31-.08-.25-.06-.49-.02-.74Zm27.07,12.1c-.17,.3-.35,.03-.52,0-.15-.02-.22,0-.21,.15,0,.12-.08,.36,.09,.33,.25-.05,.47,.13,.68,.06,.26-.08,.06-.41,.21-.58,.03-.1-.04-.31,.18-.21,.21,.1,.31,.08,.4-.14,.03-.07,.15-.11,.24-.15,.13-.05,.36-.05,.32-.24-.04-.2-.07-.51-.29-.56-.32-.06-.33-.27-.26-.45,.19-.5-.16-.72-.45-.98-.11-.1-.27-.16-.37-.27-.22-.24-.65-.18-.77-.43-.22-.46-.53-.41-.92-.34-.25,.05-.24,.09-.11,.27,.22,.29,.49,.55,.46,.98-.02,.29-.12,.35-.38,.34-.5-.02-.77-.35-.98-.73-.1-.19-.24-.26-.43-.26-.14,0-.25,.08-.29,.2-.07,.21,.14,.26,.25,.32,.18,.1,.2,.19,.07,.35-.1,.12-.16,.26-.25,.38q-.38,.49,.17,.78s.1,.06,.15,.07c.49,.12,.56,.44,.45,.88-.09,.4,.19,.64,.6,.53,.18-.05,.34-.12,.56-.06,.25,.06,.37-.2,.49-.37,.14-.19-.02-.3-.12-.42-.13-.15-.28-.27-.46-.35-.16-.07-.28-.22-.25-.39,.03-.16,.21-.08,.32-.1,.45-.11,.91-.23,1.36-.32,.12-.03,.17-.3,.32-.11,.12,.15-.03,.27-.1,.41-.24,.44-.45,.89-.19,1.4ZM24.87,8.32c-.14,.1-.27,.24-.27,.39,0,.55-.34,1.06-.13,1.63,.02,.06,0,.14-.03,.2-.29,.79-.47,1.57-.06,2.4,.11,.22,.28,.18,.4,.23,.16,.06,.13-.17,.18-.26,.14-.27,.07-.57,.11-.86,.03-.26-.21-.57-.02-.75,.21-.21,.46,.18,.74,.11,.05-.17,.04-.34,0-.51-.12-.03-.19,.14-.35,.05,.03-.14,.08-.3,.11-.46,.03-.15,0-.32-.18-.31-.51,.04-.39-.3-.36-.57,.02-.15,.13-.36-.04-.4-.36-.09-.17-.3-.16-.48,0-.13,.13-.25,.05-.41Zm14.47,7.76c.32,.01,.63-.12,.93-.13,.39-.01,.44-.26,.42-.52-.02-.29-.17-.52-.52-.54-.34-.02-.65,.09-.98,.13-.11,.01-.29,.24-.23,.26,.34,.1,.08,.24,.04,.34-.15,.38-.07,.5,.33,.46Zm12.77-4.79c-.01-.27,.06-.53-.14-.73-.08-.08-.19-.18-.33-.11-.12,.06-.1,.18-.09,.29,.08,.57,.13,1.14,.32,1.69,.05,.15,.05,.34,.27,.27,.19-.06,.15-.25,.12-.39-.08-.35-.18-.69-.15-1.03Zm-16.78,4.17c-.05-.32-.08-.6,.17-.83,.09-.09,.06-.23-.04-.34-.07-.07-.14-.15-.25-.08-.22,.14-.51,.24-.58,.5-.06,.22,.16,.38,.31,.54,.1,.1,.2,.18,.39,.22Zm2.63-.22h-.02c.01,.15,.02,.3,.05,.45,.06,.31,.25,.37,.48,.15,.18-.17,.21-.39,.15-.61-.06-.22-.2-.4-.41-.49-.13-.05-.25-.01-.25,.17,0,.11,0,.22,0,.33Zm-2.52,.56c-.05-.05-.03-.23-.17-.14-.28,.17-.45,0-.59-.18-.12-.16-.17-.11-.26,.02-.1,.15,.19,.95,.36,.98,.04,0,.11,0,.12-.01,.08-.29,.2-.54,.55-.58v-.09Zm-1.48,.23c0-.24-.21-.27-.32-.26-.3,.02-.24,.33-.3,.51-.06,.19,.16,.27,.29,.25,.27-.04,.25-.32,.33-.5Zm13.24-4.51c.01,.41-.06,.77,.17,1.12,.43-.64,.42-.67-.17-1.12Zm-6.88,5.4c-.28-.16-.54-.15-.77,.04-.1,.08-.21,.21-.11,.35,.08,.12,.22,.09,.34,.04,.22-.09,.36-.27,.54-.43Zm-2.61,.08c.22-.17,.42-.31,.61-.45,.08-.06,.16-.13,.11-.24-.05-.11-.17-.1-.25-.08-.39,.09-.58,.31-.47,.77Zm-11.96-8.31c-.05,.48-.31,.87-.15,1.33,.33-.27,.39-.78,.15-1.33Zm-2.1,4.72c-.21,.02-.25,.17-.26,.32-.01,.14-.01,.31,.18,.31,.17,0,.3-.12,.29-.28,0-.13-.02-.31-.21-.35Zm3.72-.31c0-.19-.11-.31-.21-.28-.22,.05-.17,.3-.24,.45-.04,.1,.04,.21,.14,.18,.17-.06,.29-.19,.31-.35Zm2.82,2.44c-.06-.12-.09-.29-.28-.29-.08,0-.12,.06-.1,.14,.03,.16,.12,.26,.29,.28,.1,.01,.1-.05,.09-.13Z"/><path class="cls-5" d="M22.49,18.15c.24,.04,.33-.1,.33-.31-.02-.61,.32-1.08,.6-1.58,.2-.35,.49-.54,.89-.57,.15,.02,.3,.03,.45,.07,.21,.05,.12-.12,.15-.2,.4,.18,.8,.36,1.2,.55,.07,.03,.16,.08,.23,.01,.07-.07,0-.16-.03-.23-.08-.13-.17-.25-.27-.36-.11-.12-.36-.18-.28-.36,.09-.19,.3-.34,.48-.48,.13-.1,.2,.06,.27,.12,.21,.19,.39,.18,.55-.04,.17-.24,.34-.23,.52,0,.1,.13,.23,.24,.35,.35,.14,.13,.24,.38,.49,.05,.12-.15,.48,0,.61,.17,.46,.58,1.14,.77,1.74,1.1,.45,.25,.88,.27,1.34,.07,.31-.13,.61-.23,.84,.2,.09,.17,.39,.23,.59,.35,.58,.34,1.14,.74,1.86,.76,.14,0,.28,.1,.42,.16,.08,.04,.12,.18,.24,.08,.1-.08,.16-.17,.11-.32-.09-.26-.13-.54-.27-.78-.1-.17-.13-.36-.12-.56,0-.11-.02-.24,.15-.25,.16-.01,.3,.06,.28,.23-.04,.43,.35,.56,.53,.85,.06,.1,.17,.08,.26,.03,.14-.08,.24-.2,.21-.37-.04-.2-.08-.4-.13-.6-.03-.14-.06-.29,.04-.47,.16,.3,.19,.59,.21,.86,.01,.24,.11,.36,.31,.44l.07,.03c.3,1.07,.94,2,1.19,3.09,.02,.08,.04,.16,.05,.24-1.27,.19-2.54,.46-3.82,.52-.61,.03-1.22-.01-1.82-.04-.54-.02-.99,.16-1.48,.42-.93,.5-1.81,1.2-2.97,1.14-.24-.01-.44,.1-.58,.34-.19,.32-.42,.61-.57,.96-.04,0-.06,0-.08,0-.15-.06-.25-.29-.41-.22-.16,.08-.08,.3-.09,.46-.08,1.01-.12,2.02-.22,3.02-.11,1.06,.3,2.01,.51,3.01,.12,.57,.22,1.16,.42,1.68,.25,.63,.47,1.33,1.09,1.76,.23,.16,.38,.39,.54,.62,.19,.28,.22,.47-.2,.49-.07,0-.13,.01-.2,.02-.07-.21-.26-.31-.39-.47-.11-.14-.3-.33-.23-.46,.16-.32-.04-.44-.23-.59-.14-.32-.24-.67-.56-.88,.04-.08,.01-.14-.04-.2-.22-.23-.55-.27-.8-.44,.12-1.18-.68-2.09-.9-3.19-.2,.08-.29,.25-.48,.23-.52-1.89-1.03-3.78-1.54-5.68-.05-.2-.15-.27-.35-.23-.09,.02-.19,.04-.29,.03-.47-.04-.74,.12-.66,.69-.26-.15-.34-.36-.46-.55-.08-.12-.08-.29-.3-.28-.25,0-.22,.21-.28,.35-.23,.49-.27,1.04-.47,1.54-.31-.54-.01-1,.2-1.46,.14-.31,.29-.61,.23-.98-.03-.17,.07-.32,.22-.42,.27-.18,.41-.4,.29-.73-.04-.11-.01-.25,.13-.24,.13,0,.08,.15,.09,.24,.02,.21-.04,.54,.33,.21,.25-.07,.5-.09,.76-.05,.21,.03,.42,.11,.63,.15,.18,.03,.19-.04,.08-.16,.06-.14,0-.31,.11-.44,.2,.02,.4,.03,.61,.05,.35,.13,.73,.03,.8-.28,.08-.33,.21-.2,.36-.11,.49,.29,1.01,.06,1.52,.08,.08,0,.06-.13,.04-.22l.02-.27c.34-.18,.32-.5,.16-.74-.14-.22-.09-.32,.02-.5,.25-.38,.2-.55-.21-.73-.12-.05-.25-.09-.29-.21-.14-.42-.51-.47-.86-.55h0c0-.05-.03-.07-.08-.08-.44-.34-.76-.82-1.25-1.1-.74-.25-1.22,.12-1.45,.67-.35,.83-.59,1.7-.95,2.52l-.27,.07,.02-.16c.08-.12,.15-.25,.24-.36,.13-.15,.06-.24-.07-.31v-.25Zm11.4,2.01c.27,.08,.33-.14,.37-.31,.04-.18-.19-.37-.26-.36-.48,.09-.92-.12-1.38-.16-.23-.02-.51-.07-.55,.26-.04,.32,.22,.36,.47,.38,.44,.15,.9,.13,1.35,.2Zm-6.69,2.2v-.04h-1.8v.04h1.8Z"/><path class="cls-5" d="M42.72,18.48c.21-.17,.43-.23,.69-.12,.07,.03,.19,.06,.24,.03,.69-.48,1.35-.08,2,.1,.44,.12,.86,.27,1.32,.31,.33,.2,.67,.4,1,.6,.09,.3,.23,.54,.55,.66,.28,.11,.37,.36,.35,.64-.03,.56,.08,1.1,.32,1.61,.1,.21,.03,.28-.14,.38-.43,.24-.91,.33-1.35,.52-.24,.11-.31,.06-.38-.19-.09-.35-.07-.75-.32-1.06-.06-.07-.11-.19-.22-.12-.09,.05-.02,.14-.02,.22,0,.56,.43,.94,.57,1.45,.03,.11,.17,.08,.25,.02,.52-.35,1.13-.31,1.71-.44,.41-.09,.85,.45,1.03,.77,.19,.34,.2,.66,.27,.99,0,.02,.07,.03,.11,.04l-.24,.66s-.06,.06-.08,.09c-.33,.63-.19,1.33-.3,1.99-.03,.17,.14,.26,.22,.38,.08,.11,.19,.11,.3,.08,.13-.04,.1-.15,.1-.24,.02-.4,.02-.8-.22-1.16-.05-.08-.17-.2-.05-.29,.11-.09,.19,.04,.28,.1,.4,.27,.54,.83,1.1,.94,.14,.03,.18,.23,.24,.37,.04,.09-.06,.3,.16,.25,.14-.03,.3-.08,.32-.28,.03-.19-.08-.46,.31-.43,.21,.01,.29-.34,.55-.31,.32,.03,.48-.14,.59-.41,.07-.18,.17-.35,.26-.52,.06-.11,.14-.17,.27-.13,.15,.05,.12,.17,.1,.27-.05,.31-.1,.62-.15,.94-.07,.44-.15,.85-.7,.94-.21,.03-.31,.21-.38,.4-.2,.49-.4,.97-.61,1.45-.26,.61-.45,.64-.89,.16-.04-.04-.08-.08-.11-.12-.09-.09-.19-.1-.3-.02-.12,.08-.04,.17,0,.25,.16,.36,.36,.6,.82,.65,.26,.02,.53-.14,.73-.01,.45,.27,.88,.19,1.33,.04h.19c.13,.03,.27,.09,.29-.13l.05-.24c-.05-.49,.09-.95,.46-1.24,.44-.35,.79-.76,1.1-1.22,.19-.28,.31-.18,.43,.05,.02,.16-.08,.27-.17,.36-.57,.62-.81,1.39-1.01,2.18-.09,.35-.19,.7-.49,.93-.22,.16-.11,.41-.21,.6-.19-.09-.1-.27-.11-.4,0-.16-.03-.28-.23-.26-.34-.04-.67-.02-1.01,.04-.23,0-.46-.02-.69-.03-.18,0-.39-.08-.48,.17l-.74,.09c-.29,.14-.38,.28-.14,.59,.22,.28,.17,.65,.14,1.01l-.22-.33c-.2,.1-.14,.38-.36,.44-.02,0-.02,.02-.02,.03l-1.55-2.94c-.18,.2-.05,.4-.01,.56,.15,.66,.33,1.31,.41,1.99,.06,.45,.31,.83,.62,1.15,.37,.39,.26,.81,.2,1.24-.02,.16-.14,.14-.25,.16-.55,.07-1.11,.08-1.66,.07-.04,0-.11,.01-.12,0-.31-.52-1.22-.43-1.25-1.27-.02-.32-.06-.62,.11-.9,.18-.28,.21-.58,.19-.91-.07-1.17,0-2.36-.19-3.52-.24-1.51-.54-3.02-.72-4.55,.1-.03,.2-.08,.31-.1,.16-.03,.22-.14,.19-.26-.03-.12-.16-.05-.25-.04-.18,.02-.35,.05-.53,.08l-.59-.02c-.04-.11,.22-.3-.07-.34-.6-.07-1.17-.23-1.67-.58-.33-.94-.81-1.76-1.76-2.2-.1-.12-.07-.26-.08-.4-.06-.79,.13-1.56,.26-2.33Zm5.65,7.88c.14,.01,.17,.1,.19,.22,.05,.38,.1,.76,.16,1.14,.01,.09-.01,.22,.13,.2,.1-.02,.18-.11,.16-.21-.09-.52,.18-1.02,.12-1.54,.1-.63,.44-1.16,.74-1.72-.29,.15-.53,.32-.77,.5-.03,.02-.08,.05-.09,.08-.09,.4-.26,.27-.4,.04-.22-.36-.39-.3-.55,.04-.15-.06-.2-.27-.4-.26-.02,.09-.03,.17-.05,.25q-.17,.66,.4,.86c-.07,.31,.12,.38,.37,.39Zm-3.43-4.46c-.34,0-.59,.22-.54,.44,.09,.35,.41,.5,.67,.52,.12,.01,.44,.02,.58-.16,.08-.1,.2-.25,.07-.37-.24-.2-.43-.48-.78-.44Zm-1.32-2.25c-.06-.17-.22-.2-.34-.3-.1-.09-.2-.12-.25,.04-.06,.17-.27,.33-.1,.52,.08,.09,.23,.07,.3-.09,.07-.15,.27-.03,.38-.18Zm2.4,2.17c-.1,.04-.3-.07-.28,.14,.02,.16,.15,.32,.33,.31,.13,0,.35-.03,.35-.21,0-.25-.24-.21-.4-.23Zm-1.93-2.73c-.15-.02-.17,.09-.12,.18,.13,.24,.36,.37,.61,.45,.06,.02,.11-.04,.09-.1-.07-.24-.22-.41-.46-.49-.04-.01-.08-.03-.12-.04Z"/><path class="cls-4" d="M56.85,28.13c-.12-.23-.24-.33-.43-.05-.31,.46-.66,.87-1.1,1.22-.37,.29-.51,.75-.46,1.24-.36-.28-.49-.86-.27-1.24,.07-.11,.21-.23,0-.33-.28-.14-.59,.04-.88-.07-.06-.02-.08,.09-.09,.16-.01,.15,.08,.3-.02,.44-.04,.05-.01,.07,.06,.08,.23,.03,.3,.13,.27,.36-.03,.15-.05,.3-.12,.44-.17,.36,0,.47,.32,.49,.07,0,.13,.02,.2,.04-.45,.15-.88,.23-1.33-.04-.21-.12-.47,.04-.73,.01-.46-.04-.66-.28-.82-.65-.04-.08-.12-.17,0-.25,.11-.07,.21-.07,.3,.02,.04,.04,.08,.08,.11,.12,.44,.49,.63,.45,.89-.16,.2-.48,.41-.96,.61-1.45,.08-.19,.18-.37,.38-.4,.55-.08,.63-.5,.7-.94,.05-.31,.1-.62,.15-.94,.02-.11,.05-.23-.1-.27-.13-.04-.21,.02-.27,.13-.09,.17-.18,.34-.26,.52-.11,.27-.28,.44-.59,.41-.26-.03-.34,.33-.55,.31-.39-.03-.28,.24-.31,.43-.03,.2-.19,.24-.32,.28-.22,.06-.13-.15-.16-.25-.05-.14-.1-.35-.24-.37-.56-.11-.7-.67-1.1-.94-.09-.06-.17-.19-.28-.1-.12,.1,0,.21,.05,.29,.24,.36,.24,.76,.22,1.16,0,.09,.02,.21-.1,.24-.11,.03-.22,.03-.3-.08-.08-.12-.25-.21-.22-.38,.11-.66-.04-1.36,.3-1.99,.02-.03,.05-.06,.08-.09,.2,.02,.22,.18,.25,.33,.02,.08-.04,.19,.13,.2,.33,.02,.48,.3,.63,.54,.22,.34,.89,.42,1.2,.17,.42-.36,.57-.87,.82-1.33,.1-.19,.21-.28,.44-.36,.29-.1,.68-.22,.75-.61,.04-.21,0-.44,0-.66,0-.15-.08-.23-.22-.26-.1-.02-.2-.1-.3,.01-.37,.43-.93,.64-1.33,1.03-.06,.06-.13,.12-.21,.05-.1-.08-.05-.19,0-.26,.2-.24,.42-.46,.76-.52,.15-.02,.34-.03,.35-.27,.03-.61-.08-.72-.68-.73-.15,0-.31-.01-.46,0-.18,.01-.24-.12-.32-.23-.04-.05-.02-.1,.03-.14,.12-.08,.21,0,.31,.05,.05,.02,.1,.05,.15,.06,.3,.07,.6-.09,.62-.38,.02-.33-.27-.27-.46-.28-.18,0-.3-.02-.23-.24h.62s.03,0,.04,0c.66-.12,1.19,.18,1.72,.51,.03,.02,.05,.07,.04,.09-.2,.56,.19,.25,.34,.22,.19-.03,.37-.11,.55-.16l1.34,.49v1.36c-.04,.1-.08,.2-.12,.29l-.1-.07c-.27-.04-.53,0-.79,.08-.11-.06-.17-.18-.32,0-.32,.39-.22,.87-.37,1.28-.08,.22-.07,.39,.18,.44,.39,.08,.51,.38,.63,.68,.1,.26,.21,.48,.56,.34,.03,.3-.12,.55-.19,.82Zm-.86-4.27c-.05-.09,.02-.24-.11-.28-.1-.04-.18,.06-.25,.11-.46,.33-.51,.86-.66,1.33-.04,.12,.08,.15,.19,.11,.3-.12,.84-.95,.83-1.28Zm.61-.64c-.09,.01-.18,.06-.12,.13,.16,.17,.09,.34,.08,.52,0,.12,.04,.28,.24,.26,.1,0,.24,.05,.29-.08,.07-.2-.07-.37-.15-.53-.07-.14-.18-.28-.34-.3Z"/><path class="cls-2" d="M18.64,22.34c.38,.09,.56-.14,.67-.45,.05-.13,.07-.3,.27-.14,.41,.32,.76,.72,1.21,.99,.05,.03,.06,.12,.08,.18-.27,.08-.51,.17-.77,.21-.18,.03-.29,.07-.26,.27,.02,.18,.09,.32,.31,.32,.09,0,.19,.02,.28,.05,.23,.08,.41,.19,.33,.5-.05,.2-.03,.42,.12,.59,.13,.26,.07,.49-.03,.77-.18,.5-.22,1.04-.52,1.5-.26,.04-.32,.21-.28,.45,.05,.27,.1,.53,.12,.8,.01,.16-.01,.39,.21,.48,.04,.69,.07,1.38,.12,2.06,.07,1,.28,1.96,.83,2.82-.17,.26,.13,.46,.09,.7h-.01c-.14,0-.31,.04-.33-.19-.01-.14-.11-.14-.2-.08-.19,.13-.42,.07-.63,.13-.3-.06-.55,.16-.84,.14l-.02,.02h-.02c-.1-.32-.19-.63-.29-.93,.03-.25-.16-.37-.32-.5,.09-1.37,.24-2.73,.1-4.11-.05-.47,.06-.93,.16-1.39,.27-.04,.39-.14,.24-.43-.11-.21-.18-.45-.27-.67l-.05-.46c.58-.17,.32-.66,.4-1.03,0-.05-.05-.11-.04-.16,.06-.18,0-.3-.15-.38-.26-.15-.26,.22-.44,.24-.09-.3-.19-.56-.14-.89,.04-.27-.2-.58-.31-.86,.21-.13,.28-.36,.4-.56Z"/><path class="cls-2" d="M42.72,18.48c-.13,.77-.33,1.54-.26,2.33,.01,.14-.02,.28,.08,.4-.13,.44-.16,.89-.13,1.34,.04,.81,.02,1.63,.22,2.43-.39,.26-.79,.52-1.09,.89-.23,.28-.52,.5-.84,.63-.21,.08-.08-.36-.33-.36-.01-.52-.14-1.02-.3-1.51,.38-.14,.38-.41,.26-.73-.11-.29,.14-.65-.19-.92-.04-.04,.06-.43,.14-.62,.16-.38,.14-.72,0-1.07-.07-.18-.11-.36-.05-.53,.14-.4-.05-.61-.37-.75-.14-.06-.27-.11-.27-.27,0-.16,.15-.19,.26-.24,.23-.11,.34-.29,.3-.53-.11-.64,.29-1.09,.57-1.58,.06-.11,.15-.27,.32-.2,.14,.06,.14,.21,.11,.33-.07,.33-.11,.68-.3,.96-.12,.17-.14,.32-.07,.5,.04,.1,.04,.29,.23,.22,.13-.05,.22-.15,.21-.32-.04-.5,.05-.53,.55-.54,.34,0,.64,.14,.97,.13Z"/><path class="cls-2" d="M42.42,28.2c.18,.32-.07,.58-.13,.86-.18,.9-.18,1.79-.01,2.69,.02,.09,0,.19,0,.29-.23,.05-.16,.25-.14,.37,.1,.51,.09,1.02,.12,1.53,.01,.24,0,.45-.35,.36-.23-.06-.32,0-.22,.25,.09,.21,0,.31-.22,.33l-.27-.07c.03-.28,.01-.48-.37-.17,.05-.29,.09-.52,.13-.75,.04-.2-.07-.34-.22-.45-.04-.03-.12-.05-.14-.03-.12,.12-.1,.3-.06,.42,.1,.3,.04,.56-.08,.83l-.57,.05c-.03-.2,0-.4,.12-.56,.58-.83,.65-1.81,.79-2.76,.12-.77,.11-1.54,0-2.32-.02-.15-.03-.3,.04-.45,.08,.06,.1,.03,.13-.06,.08-.21,.07-.44,.07-.66,0-.09,.06-.27,.11-.22,.21,.23,.55,0,.77,.26,.11,.13,.27,.29,.5,.25Z"/><path class="cls-5" d="M18.64,22.34c-.12,.19-.19,.43-.4,.56-.13-.02-.26-.05-.39-.07-.12-.02-.25-.06-.26,.14-.32,.14-.39,.51-.66,.77,.06-.55-.24-1.06,.07-1.57,.1-.17-.18-.31-.27-.48,.12-.2,0-.3-.17-.38l.2-.26c.23,.03,.35-.03,.35-.3,.01-.39,.08-.79,.12-1.18,.05-.13,.08-.26,.21-.34l.06-.05,.03-.02c.54-.12,.75-.58,.84-1.02,.05-.26,.05-.5,.22-.74,.16-.21,.01-.33-.23-.32l.49-1.49c.12,.82,0,1.65,.08,2.47l-.03,.1c-.15-.09-.03-.4-.31-.4-.05,.56-.29,1.09-.27,1.7,.16-.22,.18-.44,.25-.64,.06-.19,.03-.47,.32-.52l.11,1.26c-.18,.55-.16,1.12-.26,1.68-.07,.36-.08,.73-.12,1.1Z"/><path class="cls-2" d="M18.33,5.99c.13-.05,.2-.17,.31-.31,.1,.49,.18,.92,.27,1.35,.02,.08,0,.17,.11,.2,.18,.72,.35,1.44,.55,2.15,.09,.3,.11,.67,.5,.79,.23,.78,.45,1.56,.68,2.34,.17,.57,.64,1,.79,1.59,.02,.08,.15,.05,.23,.03,.03,.05,.05,.11,.08,.16-.03,.39-.51,.49-.56,.87-.01,.09-.17,.07-.26,.06-.15-.02-.3-.05-.45-.08-.08-.01-.18,.03-.21-.08-.02-.09,.06-.14,.12-.2,.09-.09,.17-.18,.27-.26,.34-.27,.33-.35-.07-.57-.45-.25-.7-.6-.71-1.16,0-.82-.23-1.61-.44-2.48-.16,.32-.18,.6-.21,.87-.04,.33-.09,.65-.43,.81-.15-.64-.03-1.29-.13-1.93-.15-.94-.23-1.89-.38-2.83-.07-.44-.07-.88-.06-1.32Z"/><path class="cls-4" d="M54.63,31.54c.19-.02,.22,.1,.23,.26,0,.14-.08,.31,.11,.4-.05,.49,.1,.95,.28,1.4,.17,.43,.22,.88,.18,1.34-.02,0-.04,0-.06-.01-.11-.23-.24-.48-.51-.44-.23,.03-.14,.29-.16,.46-.34,.07-.7-.04-1.1,.08,.14,.09,.23,.14,.31,.21,.09,.07,.23,.1,.25,.24-.62,.16-.8,.05-1.03-.63,.32-.35,.32-.43-.05-.69-.32-.22-.3-.52-.16-.8,.08-.17,.03-.27-.02-.42-.13-.41-.5-.73-.45-1.21,.09-.25,.3-.18,.48-.17,.23,.01,.46,.02,.69,.03-.04,.15,.3,.34,.03,.44-.28,.1-.15,.22-.11,.37,.06,.21,.23,.46-.14,.57-.07,.02-.06,.07-.06,.13-.07,.59,.05,.71,.63,.63,.09-.01,.19,.04,.28,.05,.21,.04,.33-.12,.46-.23,.11-.09,.09-.23,.01-.34-.4-.53-.29-1.09-.09-1.66Z"/><path class="cls-4" d="M42.42,28.2c-.22,.03-.38-.12-.5-.25-.21-.25-.55-.02-.77-.26-.04-.05-.1,.13-.11,.22,0,.22,0,.44-.07,.66-.03,.08-.05,.12-.13,.06-.27-.81-.46-1.64-.5-2.49,.25,0,.12,.45,.33,.36,.32-.13,.61-.35,.84-.63,.3-.36,.7-.62,1.09-.89,.07,.4,.11,.81,.22,1.21,.2,.75,.04,1.41-.41,2.02Z"/><path class="cls-5" d="M53.13,34.84c.23,.69,.41,.8,1.03,.63-.02-.14-.16-.17-.25-.24-.08-.07-.17-.12-.31-.21,.4-.12,.76-.01,1.1-.08,.22,.04,.45,.02,.67-.01,.02,.01,.04,.02,.06,.01,0,.01,0,.03,0,.04-.11,1.09-.11,1.09-1.2,1.15-.67,.04-1.35,.07-2.02,.08-.15,0-.43,.11-.3-.27,.04-.14-.2-.13-.31-.2-.13-.08-.36-.06-.21-.35,.06-.12-.21-.29-.13-.49,.43-.02,.36-.42,.49-.66,.14-.04,.17,.04,.22,.16,.13,.34,.29,.67,.43,1l.06-.02v-.41c.21-.15,.46-.08,.69-.13Z"/><path class="cls-4" d="M27.61,32.04c.06,.06,.08,.12,.04,.2-.15,.21-.48,.26-.46,.63,0,.12-.21,.26,.01,.4,.2,.12,.42,.16,.56-.04,.14-.19,.28-.18,.45-.11,.19,.15,.39,.27,.23,.59-.06,.13,.12,.32,.23,.46,.13,.16,.32,.26,.39,.47-.44,.08-.89,.03-1.34,.04,.08-.13,.38-.07,.29-.31-.06-.14-.19-.27-.39-.27-.23,0-.25,.18-.29,.34-.02,.08-.02,.16-.03,.24-.4,.07-.67-.06-.74-.48-.03-.16-.15-.25-.25-.36l.07-.21c.29,.21,.4,.08,.42-.22,0-.08,.01-.17-.01-.24-.2-.62,.13-1.09,.81-1.14Z"/><path class="cls-2" d="M57.15,24.47l.1,.07,.27,.47c-.25,.08-.25,.28-.26,.5-.03,.57,.14,1.15-.14,1.7l-.08,.09h.01c-.34,.14-.45-.08-.56-.34-.12-.3-.24-.61-.63-.68-.25-.05-.26-.22-.18-.44,.15-.42,.05-.9,.37-1.28,.15-.18,.21-.07,.32,0,.07,.4,.38,.61,.63,.94l.15-1.02Z"/><path class="cls-4" d="M41.47,34.89c.21-.02,.3-.12,.22-.33-.1-.24,0-.31,.22-.25,.34,.09,.36-.13,.35-.36-.03-.51-.01-1.03-.12-1.53-.02-.12-.09-.32,.14-.37,.11,.89,.4,1.75,.61,2.61,.06,.24,.25,.34,.39,.49,.15,.15,.33,.3,.24,.53-.09,.22-.31,.08-.47,.1-.26,.03-.52,.02-.69-.25-.09-.13-.22-.07-.34-.04-.27,.06-.54,.12-.8,.18,0-.29,.36-.46,.25-.78Zm.74-.27c-.19,.01-.22,.16-.24,.29-.05,.27,.19,.21,.32,.26,.15,.06,.26-.03,.25-.17-.01-.19-.18-.29-.33-.38Z"/><path class="cls-4" d="M25.42,28.64c.19,.02,.28-.16,.48-.23,.23,1.09,1.02,2,.9,3.19-.31,.04-.64,0-.95,.09-.17-1.01-.36-2.02-.44-3.05Z"/><path class="cls-2" d="M25.86,31.69c.31-.1,.63-.05,.95-.09,.25,.18,.58,.21,.8,.44-.68,.05-1.01,.52-.81,1.14,.02,.08,.02,.16,.01,.24-.02,.3-.13,.43-.42,.22,0-.16-.11-.24-.23-.31-.04-.24-.27-.36-.34-.57l.05-1.06Z"/><path class="cls-4" d="M17.58,22.96c0-.19,.15-.15,.26-.14,.13,.02,.26,.05,.39,.07,.11,.29,.35,.6,.31,.86-.05,.34,.05,.59,.14,.89,.18-.02,.18-.39,.44-.24,.15,.09,.21,.21,.15,.38-.01,.04,.05,.11,.04,.16-.08,.36,.19,.86-.4,1.03,.05-.29,.32-.58-.03-.88l-.21,.88c-.1-.47-.19-.94-.29-1.41-.14-.6-.32-1.18-.8-1.61Z"/><path class="cls-4" d="M21.41,34.45c.04-.24-.26-.44-.09-.7,.4,.3,.71,.67,1.04,1.03,.06,.07,.16,.15,.08,.24-.07,.08-.17,.13-.29,.05-.06-.15-.16-.26-.32-.3l-.08-.08s-.04-.07-.08-.02c0,0,.03,.03,.04,.05,.03,.03,.06,.06,.08,.08l.09,.18c-.43,0-.87,0-1.31,0-.05-.26-.08-.53-.35-.68,.21-.05,.43,0,.63-.13,.09-.06,.19-.06,.2,.08,.02,.23,.19,.18,.33,.2,.03,.02,.06,.05,.09,.07l.04-.04-.11-.04Z"/><path class="cls-2" d="M58.58,25.9c.29-.07,.61-.08,.78-.4,.17-.33,.44-.36,.76-.2l.08,.18c-.05,1.01-.05,.99-1.02,1-.43,0-.61-.16-.59-.58Z"/><path class="cls-5" d="M41.47,34.89c.1,.32-.26,.49-.25,.78-.8,.2-1.2-.07-1.32-.96,.19-.02,.38-.03,.57-.05,.17,.41,.44,.31,.73,.15l.27,.07Z"/><path class="cls-4" d="M18.35,17.07c.24,0,.38,.11,.23,.32-.18,.24-.17,.48-.22,.74-.09,.43-.29,.9-.84,1.02,.01-.43,.29-.76,.43-1.14,.12-.32,.27-.63,.4-.94Z"/><path class="cls-5" d="M19.06,33.53c.1,.31,.19,.61,.29,.92-.27,.17-.56,.03-.81-.02-.18-.04-.22-.34-.21-.56,.31,.04,.46-.27,.72-.33Z"/><path class="cls-5" d="M20.23,34.31c.26,.15,.29,.42,.35,.68-.19-.01-.39-.06-.58-.03-.41,.05-.62-.09-.61-.51,.29,.02,.54-.2,.84-.14Z"/><path class="cls-2" d="M44.29,23.4c.5,.35,1.07,.5,1.67,.58,.3,.04,.03,.23,.07,.34-.54,0-1.01-.23-1.49-.43-.18-.08-.2-.31-.25-.49Z"/><path class="cls-4" d="M60.2,25.47l-.08-.18c.33-.49,.83-.4,1.31-.4-.21,.63-.73,.57-1.23,.58Z"/><path class="cls-2" d="M51.74,34.23c-.13,.25-.05,.64-.49,.66-.04-.45-.09-.9-.13-1.34,0-.02,0-.03,.02-.03,.43,.04,.37,.5,.6,.71Z"/><path class="cls-5" d="M26.15,33.32c.13,.07,.24,.15,.23,.31l-.07,.21c-.15,.03-.3,.09-.45,.08-.34-.02-.54-.19-.45-.57,.25,0,.49,.04,.73-.03Z"/><path class="cls-4" d="M20.37,28.86c-.22-.1-.19-.32-.21-.48-.02-.27-.07-.54-.12-.8-.05-.23,.01-.4,.28-.45,.12,.58,.03,1.16,.05,1.73Z"/><path class="cls-2" d="M17.22,19.57c-.04,.39-.11,.78-.12,1.18,0,.27-.12,.33-.35,.3-.04-.56,.07-1.07,.47-1.48Z"/><path class="cls-4" d="M18.97,26.44c.09,.22,.16,.46,.27,.67,.15,.29,.03,.39-.24,.43-.31-.31-.24-.71-.26-1.09,.08,0,.15,0,.23-.01Z"/><path class="cls-4" d="M19.06,33.53c-.26,.06-.41,.38-.72,.33,.06-.31,.05-.66,.4-.83,.16,.13,.35,.24,.32,.5Z"/><path class="cls-2" d="M27.31,34.69c0-.08,0-.17,.03-.24,.04-.15,.06-.34,.29-.34,.19,0,.33,.13,.39,.27,.09,.24-.21,.19-.29,.31-.14,.11-.28-.03-.42,0Z"/><path class="cls-5" d="M18.97,26.44c-.08,0-.15,0-.23,.01l-.06-.47c.07-.29,.13-.57,.21-.88,.35,.3,.08,.59,.03,.88l.05,.46Z"/><path class="cls-4" d="M26.15,33.32c-.24,.07-.49,.04-.73,.03,.09-.23,.21-.44,.39-.61,.07,.22,.3,.34,.34,.57Z"/><path class="cls-4" d="M16.55,21.31c.17,.08,.28,.18,.17,.38-.07,.04-.15,.07-.21,.11-.16,.12-.22-.03-.3-.11-.14-.14,.03-.18,.1-.23,.08-.06,.16-.1,.24-.15Z"/><path class="cls-4" d="M46.62,24.33c.17-.03,.35-.06,.53-.08,.09-.01,.22-.08,.25,.04,.03,.12-.03,.23-.19,.26-.11,.02-.21,.06-.31,.1-.13-.07-.21-.18-.27-.31Z"/><path class="cls-5" d="M21.88,34.99l-.09-.18,.04-.04c.16,.04,.27,.15,.32,.3l-.27-.08Z"/><path class="cls-4" d="M17.5,19.17l-.06,.05,.06-.05Z"/><path class="cls-4" d="M57.03,27.3l.08-.09s0,.11-.08,.09Z"/><path class="cls-2" d="M57.37,24.25v-1.36c.68,.15,1.4,.16,1.99,.6-.35,.37-.8,.19-1.21,.24-.14,.02-.35-.09-.41,.08-.05,.16,.11,.29,.25,.4,.04,.03,.08,.07,.13,.1-.26,.09-.51,.12-.75-.06Z"/><path class="cls-5" d="M53.33,21.72h-.62c-.53,.19-1.06,.38-1.58,.56,.18-.41,.62-.51,.92-.78,.16-.06,.32-.13,.5-.1,.1,.22,.31,.19,.47,.14,.34-.09,.7-.14,1.02-.31l.16-.04c.25,.07,.5,.14,.76,.22l.15,.42c-.11-.02-.22-.02-.32-.06-.48-.22-.97-.1-1.45-.04Z"/><path class="cls-4" d="M58.12,24.3s-.08-.07-.13-.1c-.14-.1-.29-.24-.25-.4,.05-.17,.27-.06,.41-.08,.41-.05,.86,.13,1.21-.24,.42,.14,.87,.19,1.27,.41-.9-.23-1.67,.3-2.51,.41Z"/><path class="cls-2" d="M53.33,21.72c.49-.07,.97-.18,1.45,.04,.1,.04,.21,.04,.32,.06,.3,.21,.67,.31,.93,.57-.18,.06-.37,.13-.55,.16-.16,.03-.55,.34-.34-.22,0-.02-.02-.08-.04-.09-.52-.33-1.06-.64-1.72-.51-.01,0-.03,0-.04,0Z"/><path class="cls-4" d="M29.83,1.85c.5,0,.95,0,1.38,.21,.22,.1,.48,.02,.73-.03,.59-.11,.78,.12,.65,.71-.17,.73-.41,1.38-1.25,1.58-.19,.05-.32,.15-.18,.39,.12,.21-.02,.27-.2,.28-.21,.02-.41-.02-.61-.08-.41-.12-.82-.24-1.25-.26-.19,0-.41-.01-.57-.25-.12-.18-.44-.24-.61-.12-.43,.32-.56-.14-.78-.27-.24-.15-.23-.48-.07-.72,.27-.42,.52-.87,1.1-.98,.31-.06,.63-.18,.9-.4,.23-.18,.54-.03,.76-.07Zm.38,.73c-.39,0-.69,.22-.71,.55-.02,.32,.29,.3,.49,.39,.09,.04,.18,.06,.28,.07,.33,0,.58-.26,.62-.64,.03-.36-.29-.25-.46-.33-.07-.04-.16-.02-.21-.03Z"/><path class="cls-4" d="M45.2,10.87c-.2,.16-.15,.35-.16,.52,0,.09-.03,.17-.13,.18-.09,0-.14-.03-.19-.12-.15-.28-.07-.68,.16-.92,.29-.31,.21-.68,.08-1.03-.05-.14-.13-.3,.07-.31,.3-.02,.36-.17,.36-.43,0-.15,.08-.31,.12-.49,.15,.09,.14,.22,.09,.3-.1,.2-.04,.39,.05,.55,.36,.61,.17,1.27,.22,1.91,.01,.2-.13,.2-.28,.21-.27,.04-.42-.07-.4-.37Z"/><path class="cls-4" d="M26.81,1.85c-.16-.01-.36,.02-.32-.19,.07-.36,.43-.28,.67-.38,.1-.04,.32,.03,.28,.15-.09,.29-.35,.4-.62,.41Z"/><path class="cls-4" d="M20.54,2.02l1.23-.57c-.28,.61-.51,.72-1.23,.57Z"/><path class="cls-2" d="M51.12,22.28c.53-.18,1.06-.37,1.58-.55-.08,.22,.04,.24,.23,.24,.19,0,.48-.05,.46,.28-.02,.29-.32,.45-.62,.38-.05-.01-.1-.04-.15-.06-.1-.04-.19-.12-.31-.05-.05,.03-.07,.09-.03,.14,.08,.11,.14,.24,.32,.23,.15-.01,.3,0,.46,0,.6,0,.7,.12,.68,.73-.01,.24-.2,.25-.35,.27-.34,.05-.55,.28-.76,.52-.06,.07-.11,.17,0,.26,.09,.07,.16,0,.21-.05,.4-.4,.96-.6,1.33-1.03,.1-.12,.2-.04,.3-.01,.14,.03,.22,.11,.22,.26,0,.22,.03,.45,0,.66-.07,.4-.46,.51-.75,.61-.23,.08-.34,.17-.44,.36-.25,.46-.4,.97-.82,1.33-.3,.26-.98,.17-1.2-.17-.16-.24-.3-.52-.63-.54-.17-.01-.12-.11-.13-.2-.03-.15-.05-.31-.25-.33,.08-.22,.16-.44,.24-.66,.18,0,.32-.04,.35-.26,.04-.32-.28-.17-.4-.33,.25-.17,.26-.3-.05-.43-.27-.11-.26-.45,.02-.54,.42-.12,.28-.43,.23-.63-.07-.24-.29-.02-.43,0-.3,.05-.43-.06-.38-.33h.51c.2-.02,.41,.1,.58-.09Z"/><path class="cls-2" d="M54.19,21.19l-.16,.04c-.55-.41-1.01-.08-1.48,.17-.18-.02-.34,.04-.5,.1,.02-.45,.1-.91,.06-1.36-.06-.66,.04-1.32,.02-1.98,0-.28-.12-.43-.39-.5-.43-.12-.69-.52-.6-.97,.04-.18-.03-.3-.08-.45-.39-1.17-1.08-2.27-1.01-3.57,0-.14-.04-.3,.09-.39,.58-.43,.47-1.06,.5-1.65,0-.1-.14-.29,.12-.31,.18-.01,.31,.05,.34,.22,.07,.35,.19,.69,.19,1.05,.01,.55,0,1.1,.36,1.57,.03,.04,.04,.12,.02,.15-.35,.69-.03,1.31,.19,1.95,.16,.47,.28,.96,.46,1.41,.33,.86,.34,1.72,.25,2.61,0,.08,.04,.14,.11,.16,.21,.05,.16,.21,.2,.35,.1,.35,.09,.73,.36,1.03,.14,.16,.28,.21,.42,.09,.14-.12,.15-.29,.06-.49-.19-.41-.28-.86-.32-1.31,0-.04,0-.1-.02-.11-.5-.16-.19-.45-.14-.72,.14-.79,.08-1.53-.41-2.23-.17-.24-.12-.63-.1-.97,.97,1.91,1.14,4.02,1.45,6.09Z"/><path class="cls-2" d="M22.58,19.16c.37-.82,.6-1.69,.95-2.52,.23-.55,.71-.91,1.45-.67,.12,.98,.59,1.52,1.42,1.63,.14,.08,.17,.24,.25,.37,.34,.61,.62,1.24,.84,1.9l-.02,.27c-.58,.02-1.03-.26-1.42-.65-.12-.12-.27-.3-.41-.14-.17,.2,.15,.19,.2,.31,0,.02,0,.05,0,.13-.32-.04-.64-.28-.97-.08,.13,.23,.42,.24,.53,.46-.13,.08-.23,.04-.34,0-.11-.03-.24-.15-.34-.06-.11,.1-.04,.26,0,.39,.02,.05,.02,.11,.03,.16-.2-.02-.4-.03-.61-.05-.22-.35-.44-.7-.65-1.05-.11-.18-.17-.47-.45-.41-.24,.06-.19,.36-.28,.56-.02,.04,0,.11,.02,.16,.04,.1,.06,.19-.02,.27-.05,.04-.1,.03-.15,0-.09-.08-.15-.17-.1-.29,.09-.23,.04-.46,.07-.7Zm1.98-.53c.03-.17-.07-.26-.22-.27-.13-.01-.33,0-.33,.15-.01,.22,.23,.16,.37,.23,.09,.04,.19,.06,.18-.11Zm.13,.97c.04-.08,.09-.16,.1-.24,.01-.08-.04-.17-.13-.17-.1,0-.13,.1-.15,.17-.03,.11,.06,.17,.17,.24Z"/><path class="cls-5" d="M45.38,17.35c-.27-.51-.05-.96,.19-1.4,.07-.13,.23-.26,.1-.41-.16-.19-.21,.09-.32,.11-.46,.1-.91,.21-1.36,.32-.11,.03-.29-.06-.32,.1-.03,.17,.08,.32,.25,.39,.18,.08,.33,.2,.46,.35,.1,.12,.27,.23,.12,.42-.13,.18-.24,.43-.49,.37-.22-.05-.38,.02-.56,.06-.41,.11-.69-.13-.6-.53,.1-.44,.04-.76-.45-.88-.05-.01-.1-.05-.15-.07q-.56-.29-.17-.78c.09-.12,.16-.26,.25-.38,.13-.16,.11-.24-.07-.35-.11-.07-.32-.11-.25-.32,.04-.12,.15-.21,.29-.2,.19,0,.32,.07,.43,.26,.21,.38,.48,.71,.98,.73,.25,0,.36-.05,.38-.34,.03-.44-.24-.69-.46-.98-.13-.18-.14-.23,.11-.27,.39-.07,.69-.13,.92,.34,.12,.25,.56,.19,.77,.43,.1,.11,.25,.17,.37,.27,.29,.26,.64,.48,.45,.98-.07,.18-.06,.38,.26,.45,.22,.04,.25,.35,.29,.56,.04,.19-.19,.19-.32,.24-.09,.04-.21,.08-.24,.15-.09,.22-.19,.24-.4,.14-.22-.1-.15,.11-.18,.21l-.24,.03Z"/><path class="cls-2" d="M22.32,19.07l-.02,.16c-.28,.08-.14,.29-.12,.46-.06,0-.08,0-.11,0-.52-.21-.52-.21-.64,.3-.08,.37-.27,.72-.13,1.12,.09,.25-.13,.35-.32,.46-.23,.13-.23-.03-.28-.18-.05-.15-.25,.03-.34-.15-.14-.26-.09-.48,.03-.7,.09-.17,.11-.29,0-.46-.13-.21-.02-.43,.03-.63,.07-.26,.26-.29,.6-.05-.26-.55-.21-.98-.21-1.42,0-.25,.05-.46,.35-.2,.21,.19,.44,.07,.69,.11-.02-.25-.31-.28-.28-.51,.05-.32,.23-.47,.58-.4,.25,.05,.53,.09,.34,.5-.08,.18-.02,.44-.02,.66v.25c-.36,.15-.36,.39-.17,.67Z"/><path class="cls-5" d="M50.54,22.38c-.17,0-.34,0-.51,0-.25-.48-.41-.98-.51-1.52-.09-.5-.1-1.03-.35-1.47-.13-.24-.21-.43-.19-.72,.02-.23,.04-.64-.45-.53,0-.02-.02-.04-.02-.05,.03-.44,.05-.87-.04-1.32-.1-.49,0-.98,.1-1.59,.35,.69,.9,1.19,.66,1.98-.08,.26,.01,.53,.07,.77,.15,.57,.1,1.18,.33,1.73,.07,.16,.1,.27,.31,.32,.37,.08,.43,.28,.19,.59-.17,.22-.1,.43-.05,.66,.1,.4,.38,.73,.45,1.14Z"/><path class="cls-5" d="M24.87,8.32c.08,.15-.05,.27-.05,.41-.01,.18-.2,.39,.16,.48,.17,.04,.06,.26,.04,.4-.04,.28-.16,.61,.36,.57,.17-.01,.21,.16,.18,.31-.03,.16-.07,.31-.11,.46,.16,.09,.23-.07,.35-.05,.04,.17,.04,.35,0,.51-.28,.07-.53-.32-.74-.11-.18,.18,.06,.49,.02,.75-.04,.29,.03,.59-.11,.86-.05,.09-.02,.32-.18,.26-.13-.05-.29,0-.4-.23-.41-.83-.24-1.61,.06-2.4,.02-.06,.05-.14,.03-.2-.21-.56,.13-1.08,.13-1.63,0-.15,.13-.29,.27-.39Z"/><path class="cls-2" d="M48.52,18.08s.02,.03,.02,.05c0,.42,0,.85,0,1.38-.22-.25-.4-.12-.58-.13-.33-.2-.67-.4-1-.6-.63-.29-.76-.8-.65-1.43,.19,0,.15,.15,.2,.23,.07,.12,.26,.23,.28,.19,.19-.3,.47-.04,.69-.12,.23-.07,.49-.03,.68,.18,.09,.1,.19,.2,.34,.23Z"/><path class="cls-5" d="M39.34,16.08c-.4,.03-.48-.09-.33-.47,.04-.1,.3-.24-.04-.34-.06-.02,.12-.24,.23-.26,.33-.04,.64-.15,.98-.13,.35,.02,.5,.26,.52,.54,.02,.25-.03,.5-.42,.52-.31,0-.61,.14-.93,.13Z"/><path class="cls-5" d="M20.07,10.17c-.4-.11-.42-.48-.5-.79-.2-.71-.37-1.43-.55-2.15,0-.11,0-.21,0-.4,.33,.66,.69,1.22,.84,1.89,.03,.16,.08,.37,.2,.44,.49,.29,.27,.59,.05,.9-.02,.03-.02,.08-.03,.12Z"/><path class="cls-2" d="M52.11,11.29c-.03,.34,.07,.68,.15,1.03,.03,.14,.07,.33-.12,.39-.22,.06-.22-.13-.27-.27-.19-.55-.24-1.12-.32-1.69-.02-.11-.03-.23,.09-.29,.13-.07,.24,.02,.33,.11,.2,.2,.13,.46,.14,.73Z"/><path class="cls-2" d="M19.01,19.56c-.04-.42-.08-.84-.11-1.26v-.14l.03-.1c.14,0,.26,.09,.28,.21,.16,.76,.5,1.49,.44,2.3,0,.03-.02,.07-.04,.12-.22-.16-.26-.39-.2-.6,.11-.39-.07-.5-.39-.52Z"/><path class="cls-5" d="M35.33,15.46c-.18-.04-.29-.12-.39-.22-.15-.16-.37-.32-.31-.54,.07-.26,.36-.36,.58-.5,.11-.07,.18,0,.25,.08,.1,.1,.13,.25,.04,.34-.25,.23-.22,.51-.17,.83Z"/><path class="cls-5" d="M37.97,15.24c0-.11,0-.22,0-.33,0-.18,.12-.22,.25-.17,.22,.08,.36,.27,.41,.49,.06,.22,.03,.45-.15,.61-.23,.22-.42,.16-.48-.15-.03-.15-.03-.3-.05-.45h.02Z"/><path class="cls-5" d="M21.84,14.29c-.03-.05-.05-.11-.08-.16-.13-.36-.27-.72-.4-1.08-.03-.09-.08-.21,.02-.26,.11-.06,.18,.06,.22,.14,.16,.35,.44,.64,.62,.97,.21,.39-.15,.36-.39,.39Z"/><path class="cls-2" d="M24.91,15.57c-.03,.08,.06,.25-.15,.2-.15-.03-.3-.05-.45-.07-.08-.02-.16-.04-.24-.05-.23-.03-.35-.2-.47-.36-.04-.05,0-.11,.07-.12,.23-.03,.45-.3,.68-.08,.18,.16,.42,.26,.55,.48Z"/><path class="cls-5" d="M35.45,15.8v.09c-.35,.03-.47,.29-.55,.58,0,.01-.08,.02-.12,.01-.17-.03-.45-.83-.36-.98,.08-.13,.13-.18,.26-.02,.14,.18,.31,.35,.59,.18,.15-.09,.12,.09,.17,.14Z"/><path class="cls-2" d="M45.38,17.35l.24-.03c-.14,.17,.06,.5-.21,.58-.21,.07-.42-.11-.68-.06-.17,.04-.09-.21-.09-.33,0-.14,.07-.17,.21-.15,.17,.02,.36,.29,.52,0Z"/><path class="cls-2" d="M24.03,21.06c.12,.12,.1,.19-.08,.16-.21-.04-.42-.11-.63-.15-.25-.04-.51-.01-.76,.05,.12-.58,.3-.66,.8-.35,.21,.13,.41,.27,.67,.28Z"/><path class="cls-5" d="M33.97,16.03c-.08,.18-.06,.46-.33,.5-.13,.02-.35-.07-.29-.25,.06-.18,0-.49,.3-.51,.11,0,.32,.02,.32,.26Z"/><path class="cls-2" d="M47.21,11.52c.59,.44,.6,.47,.17,1.12-.22-.34-.16-.71-.17-1.12Z"/><path class="cls-2" d="M40.33,16.92c-.18,.16-.32,.34-.54,.43-.12,.05-.25,.08-.34-.04-.11-.14,.01-.27,.11-.35,.23-.19,.49-.2,.77-.04Z"/><path class="cls-2" d="M37.72,17c-.11-.46,.08-.69,.47-.77,.09-.02,.2-.03,.25,.08,.05,.11-.03,.18-.11,.24-.19,.14-.39,.29-.61,.45Z"/><path class="cls-5" d="M25.77,8.69c.24,.55,.17,1.06-.15,1.33-.16-.46,.11-.85,.15-1.33Z"/><path class="cls-2" d="M23.66,13.41c.19,.04,.2,.22,.21,.35,.01,.16-.12,.29-.29,.28-.19,0-.19-.18-.18-.31,.01-.16,.05-.3,.26-.32Z"/><path class="cls-5" d="M27.39,13.1c-.02,.16-.14,.29-.31,.35-.1,.03-.19-.08-.14-.18,.07-.16,.02-.41,.24-.45,.1-.02,.22,.1,.21,.28Z"/><path class="cls-5" d="M30.21,15.54c0,.08,.01,.14-.09,.13-.17-.02-.26-.12-.29-.28-.01-.08,.02-.14,.1-.14,.19,0,.22,.17,.28,.29Z"/><path class="cls-2" d="M37.72,17.15l-.07-.03s.06,0,.07,.03Z"/><path class="cls-4" d="M24.74,20.67c-.01-.05-.01-.11-.03-.16-.05-.13-.12-.28,0-.39,.1-.09,.23,.03,.34,.06,.11,.03,.21,.07,.34,0-.12-.22-.4-.24-.53-.46,.34-.2,.66,.04,.97,.08,0-.08,.02-.11,0-.13-.06-.12-.38-.11-.2-.31,.14-.16,.29,.02,.41,.14,.4,.39,.84,.66,1.42,.65,.02,.08,.04,.22-.04,.22-.51-.02-1.03,.21-1.52-.08-.15-.09-.28-.21-.36,.11-.07,.31-.45,.41-.8,.28Z"/><path class="cls-4" d="M27.48,19.88c-.22-.66-.5-1.3-.84-1.9-.07-.13-.11-.29-.25-.37l-.09-.46c.35,.08,.72,.14,.86,.55,.04,.12,.17,.16,.29,.21,.41,.18,.46,.35,.21,.73-.11,.17-.16,.28-.02,.5,.16,.24,.18,.55-.16,.74Z"/><path class="cls-3" d="M26.31,17.15l.09,.46c-.83-.11-1.3-.65-1.42-1.63,.5,.28,.81,.76,1.25,1.1,0,.05,.02,.09,.08,.08h0Z"/><path class="cls-4" d="M32.54,19.97c-.25-.01-.5-.06-.47-.38,.04-.33,.32-.28,.55-.26,.46,.04,.9,.25,1.38,.16,.07-.01,.3,.18,.26,.36-.04,.16-.1,.38-.37,.31,0-.07,.08-.12,.03-.19-.2-.31-.95-.52-1.29-.37-.21,.09-.16,.22-.09,.37Z"/><path class="cls-2" d="M28.21,33.12c-.18-.07-.31-.09-.45,.11-.14,.19-.36,.16-.56,.04-.22-.14,0-.27-.01-.4-.02-.36,.31-.42,.46-.63,.32,.21,.42,.56,.56,.88Z"/><path class="cls-2" d="M32.54,19.97c-.07-.15-.12-.28,.09-.37,.34-.15,1.08,.06,1.29,.37,.05,.08-.02,.13-.03,.19-.45-.06-.92-.04-1.35-.2Z"/><path class="cls-4" d="M22.32,19.07c-.19-.28-.19-.52,.17-.67,.14,.08,.21,.16,.07,.31-.09,.11-.16,.24-.24,.36Z"/><path class="cls-4" d="M27.21,22.36h-1.8v-.04h1.81v.04Z"/><path class="cls-4" d="M26.31,17.15c-.06,0-.07-.04-.08-.08,.05,0,.08,.03,.08,.08Z"/><path class="cls-4" d="M47.96,19.39c.18,0,.36-.12,.58,.13,0-.53,0-.96,0-1.38,.48-.11,.47,.3,.45,.53-.03,.29,.05,.48,.19,.72,.25,.45,.26,.98,.35,1.47,.1,.53,.25,1.04,.51,1.52-.05,.27,.07,.38,.37,.33,.15-.02,.37-.24,.43,0,.05,.19,.18,.51-.23,.63-.29,.08-.29,.43-.02,.54,.31,.13,.3,.26,.05,.43,.12,.16,.44,0,.4,.33-.03,.22-.17,.26-.35,.26-.04-.01-.11-.02-.11-.04-.07-.33-.08-.66-.27-.99-.18-.32-.61-.87-1.03-.77-.57,.13-1.19,.09-1.71,.44-.08,.05-.22,.09-.25-.02-.14-.5-.58-.89-.57-1.45,0-.08-.07-.17,.02-.22,.12-.07,.16,.05,.22,.12,.26,.31,.23,.7,.32,1.06,.07,.26,.14,.3,.38,.19,.44-.19,.92-.28,1.35-.52,.17-.1,.24-.17,.14-.38-.24-.51-.35-1.04-.32-1.61,.02-.29-.07-.54-.35-.64-.32-.12-.46-.37-.55-.66Z"/><path class="cls-2" d="M54.63,31.54c-.2,.57-.3,1.12,.09,1.66,.08,.11,.1,.25-.01,.34-.13,.11-.25,.27-.46,.23-.09-.02-.19-.07-.28-.05-.58,.08-.71-.04-.63-.63,0-.06,0-.11,.06-.13,.36-.11,.2-.36,.14-.57-.04-.15-.17-.27,.11-.37,.27-.1-.06-.28-.03-.44,.34-.05,.67-.08,1.01-.04Z"/><path class="cls-4" d="M51.74,34.23c-.23-.21-.17-.67-.6-.71,.22-.06,.16-.34,.36-.44l.22,.33c.04-.36,.08-.73-.14-1.01-.24-.3-.15-.45,.14-.59,.08,.16,.13,.34,.23,.48,.27,.36,.66,.63,.49,1.22-.06,.22,.11,.53-.12,.77-.02,.03,.03,.13,.05,.19,.03,.16,.06,.32,.09,.49v.41l-.06,.02c-.15-.33-.31-.66-.43-1-.05-.12-.07-.2-.22-.16Z"/><path class="cls-2" d="M52.45,34.96c-.03-.16-.06-.32-.09-.49-.01-.07-.07-.17-.05-.19,.23-.24,.06-.55,.12-.77,.17-.59-.22-.86-.49-1.22-.1-.14-.16-.32-.23-.48l.74-.09c-.05,.48,.32,.8,.45,1.21,.05,.14,.1,.25,.02,.42-.14,.28-.16,.58,.16,.8,.37,.26,.37,.34,.05,.69-.23,.05-.48-.03-.69,.13Z"/><path class="cls-2" d="M48.06,25.11c.16-.34,.33-.4,.55-.04,.14,.22,.31,.35,.4-.04,0-.03,.06-.06,.09-.08,.24-.18,.47-.36,.77-.5-.3,.56-.64,1.09-.74,1.72-.29-.09-.49,.22-.76,.19-.25-.01-.43-.09-.37-.39,.1-.28,.02-.57,.06-.85Z"/><path class="cls-2" d="M54.34,30.91c-.07-.01-.13-.03-.2-.04-.33-.02-.49-.13-.32-.49,.06-.13,.09-.29,.12-.44,.04-.23-.04-.34-.27-.36-.08,0-.1-.03-.06-.08,.1-.15,0-.3,.02-.44,0-.07,.03-.18,.09-.16,.29,.11,.6-.07,.88,.07,.21,.1,.06,.22,0,.33-.22,.37-.09,.96,.27,1.24-.02,.08-.03,.16-.05,.24-.11,.01-.23-.02-.29,.12h-.19Z"/><path class="cls-4" d="M44.94,21.89c.35-.04,.55,.24,.78,.44,.14,.11,.01,.27-.07,.37-.15,.18-.46,.17-.58,.16-.26-.03-.58-.17-.67-.52-.06-.22,.2-.44,.54-.44Z"/><path class="cls-4" d="M48.37,26.35c.28,.03,.47-.29,.76-.19,.06,.52-.21,1.01-.12,1.54,.02,.1-.06,.2-.16,.21-.15,.02-.12-.11-.13-.2-.05-.38-.11-.76-.16-1.14-.02-.12-.05-.21-.19-.22Z"/><path class="cls-4" d="M48.06,25.11c-.03,.28,.05,.57-.06,.85q-.57-.2-.4-.86c.02-.08,.04-.16,.05-.25,.2-.01,.26,.2,.4,.26Z"/><path class="cls-2" d="M43.62,19.64c-.12,.15-.31,.03-.38,.18-.07,.15-.22,.17-.3,.09-.17-.19,.04-.35,.1-.52,.06-.16,.15-.13,.25-.04,.11,.1,.28,.13,.34,.3Z"/><path class="cls-4" d="M46.02,21.81c.16,.03,.4-.02,.4,.23,0,.19-.22,.2-.35,.21-.18,.01-.31-.14-.33-.31-.02-.2,.17-.1,.28-.14Z"/><path class="cls-4" d="M44.1,19.09s.08,.03,.12,.04c.25,.08,.39,.25,.46,.49,.02,.06-.03,.12-.09,.1-.25-.09-.48-.21-.61-.45-.05-.09-.03-.2,.12-.18Z"/><path class="cls-4" d="M54.53,30.9c.05-.14,.18-.11,.29-.12-.02,.22-.16,.16-.29,.12Z"/><path class="cls-5" d="M55.99,23.86c.01,.33-.53,1.16-.83,1.28-.11,.04-.23,0-.19-.11,.16-.47,.21-1.01,.66-1.33,.08-.05,.15-.15,.25-.11,.13,.05,.06,.2,.11,.28Z"/><path class="cls-5" d="M57.15,24.47l-.15,1.02c-.25-.33-.57-.54-.63-.94,.26-.09,.52-.12,.79-.08Z"/><path class="cls-2" d="M56.61,23.22c.17,.02,.27,.15,.34,.3,.08,.17,.22,.33,.15,.53-.05,.14-.18,.08-.29,.08-.2,.02-.25-.15-.24-.26,0-.19,.08-.36-.08-.52-.06-.06,.03-.11,.12-.13Z"/><path class="cls-4" d="M41.2,34.81c-.29,.16-.56,.26-.73-.15,.12-.27,.18-.53,.08-.83-.04-.13-.06-.3,.06-.42,.02-.02,.11,0,.14,.03,.15,.11,.26,.25,.22,.45-.04,.23-.08,.45-.13,.75,.38-.31,.4-.1,.37,.17Z"/><path class="cls-4" d="M18.9,18.16v.14c-.3,.06-.26,.33-.32,.52-.07,.2-.09,.42-.25,.64-.02-.61,.22-1.14,.27-1.7,.28,0,.15,.3,.31,.4Z"/><path class="cls-2" d="M55.37,34.92c-.22,.03-.45,.05-.67,.01,.02-.17-.08-.43,.15-.46,.28-.04,.41,.22,.51,.44Z"/><path class="cls-2" d="M42.21,34.62c.15,.09,.31,.18,.33,.38,0,.14-.1,.23-.25,.17-.13-.05-.37,0-.32-.26,.02-.13,.05-.28,.24-.29Z"/><path class="cls-5" d="M21.41,34.45l.11,.04-.04,.04s-.06-.05-.09-.07h.01Z"/><path class="cls-5" d="M21.71,34.73s-.05-.05-.04-.05c.04-.05,.06-.01,.08,.02l-.04,.04Z"/><path class="cls-5" d="M21.79,34.81s-.05-.06-.08-.08l.04-.03,.08,.08-.04,.04Z"/><path class="cls-4" d="M52.55,21.4c.47-.24,.94-.58,1.48-.17-.32,.17-.67,.22-1.02,.31-.16,.04-.37,.08-.47-.14Z"/><path class="cls-5" d="M30.21,2.58s.14,0,.21,.03c.17,.09,.5-.03,.46,.33-.03,.39-.29,.65-.62,.64-.09,0-.19-.03-.28-.07-.19-.09-.51-.08-.49-.39,.02-.32,.32-.55,.71-.55Z"/><path class="cls-4" d="M24.56,18.62c0,.17-.1,.15-.18,.11-.13-.07-.38-.01-.37-.23,0-.14,.2-.16,.33-.15,.15,.02,.25,.11,.22,.27Z"/><path class="cls-4" d="M24.69,19.59c-.11-.07-.2-.13-.17-.24,.02-.07,.04-.17,.15-.17,.1,0,.15,.09,.13,.17-.01,.08-.07,.16-.1,.24Z"/></g></svg>